<svg xmlns="http://www.w3.org/2000/svg" version="1.1" xmlns:xlink="http://www.w3.org/1999/xlink" xmlns:svgjs="http://svgjs.dev/svgjs" viewBox="0 0 800 800" preserveAspectRatio="xMidYMid slice"><defs><pattern id="pppixelate-pattern" width="20" height="20" patternUnits="userSpaceOnUse" patternTransform="translate(0 0) scale(2.3) rotate(31)" shape-rendering="crispEdges">
    <rect width="1" height="1" x="7" y="1" fill="hsl(10, 75%, 40%)"></rect><rect width="1" height="1" x="7" y="2" fill="hsl(10, 75%, 40%)"></rect><rect width="1" height="1" x="7" y="3" fill="hsl(105, 69%, 30%)"></rect><rect width="1" height="1" x="6" y="4" fill="hsl(105, 69%, 30%)"></rect><rect width="1" height="1" x="7" y="4" fill="hsl(105, 69%, 30%)"></rect><rect width="1" height="1" x="8" y="4" fill="hsl(105, 69%, 30%)"></rect><rect width="1" height="1" x="10" y="4" fill="hsl(30, 100%, 40%)"></rect><rect width="1" height="1" x="11" y="4" fill="hsl(50, 98%, 50%)"></rect><rect width="1" height="1" x="12" y="4" fill="hsl(50, 98%, 50%)"></rect><rect width="1" height="1" x="16" y="4" fill="hsl(70, 69%, 50%)"></rect><rect width="1" height="1" x="17" y="4" fill="hsl(70, 69%, 50%)"></rect><rect width="1" height="1" x="6" y="5" fill="hsl(105, 69%, 30%)"></rect><rect width="1" height="1" x="7" y="5" fill="hsl(105, 69%, 30%)"></rect><rect width="1" height="1" x="8" y="5" fill="hsl(105, 69%, 30%)"></rect><rect width="1" height="1" x="12" y="5" fill="hsl(50, 98%, 50%)"></rect><rect width="1" height="1" x="13" y="5" fill="hsl(50, 98%, 50%)"></rect><rect width="1" height="1" x="15" y="5" fill="hsla(353, 98%, 41%, 1.00)"></rect><rect width="1" height="1" x="16" y="5" fill="hsla(353, 98%, 41%, 1.00)"></rect><rect width="1" height="1" x="6" y="6" fill="hsl(105, 69%, 30%)"></rect><rect width="1" height="1" x="7" y="6" fill="hsl(105, 69%, 30%)"></rect><rect width="1" height="1" x="8" y="6" fill="hsl(105, 69%, 30%)"></rect><rect width="1" height="1" x="12" y="6" fill="hsl(50, 98%, 50%)"></rect><rect width="1" height="1" x="13" y="6" fill="hsl(50, 98%, 50%)"></rect><rect width="1" height="1" x="14" y="6" fill="hsla(353, 98%, 41%, 1.00)"></rect><rect width="1" height="1" x="15" y="6" fill="hsla(353, 98%, 41%, 1.00)"></rect><rect width="1" height="1" x="16" y="6" fill="hsla(353, 98%, 41%, 1.00)"></rect><rect width="1" height="1" x="17" y="6" fill="hsla(353, 98%, 41%, 1.00)"></rect><rect width="1" height="1" x="6" y="7" fill="hsl(70, 69%, 50%)"></rect><rect width="1" height="1" x="7" y="7" fill="hsl(70, 69%, 50%)"></rect><rect width="1" height="1" x="8" y="7" fill="hsl(105, 69%, 30%)"></rect><rect width="1" height="1" x="12" y="7" fill="hsl(50, 98%, 50%)"></rect><rect width="1" height="1" x="13" y="7" fill="hsl(50, 98%, 50%)"></rect><rect width="1" height="1" x="14" y="7" fill="hsla(353, 98%, 41%, 1.00)"></rect><rect width="1" height="1" x="15" y="7" fill="hsla(353, 98%, 41%, 1.00)"></rect><rect width="1" height="1" x="16" y="7" fill="hsla(353, 98%, 41%, 1.00)"></rect><rect width="1" height="1" x="17" y="7" fill="hsla(353, 98%, 41%, 1.00)"></rect><rect width="1" height="1" x="6" y="8" fill="hsl(70, 69%, 50%)"></rect><rect width="1" height="1" x="7" y="8" fill="hsl(70, 69%, 50%)"></rect><rect width="1" height="1" x="8" y="8" fill="hsl(105, 69%, 30%)"></rect><rect width="1" height="1" x="11" y="8" fill="hsl(30, 100%, 40%)"></rect><rect width="1" height="1" x="12" y="8" fill="hsl(30, 100%, 40%)"></rect><rect width="1" height="1" x="13" y="8" fill="hsl(30, 100%, 40%)"></rect><rect width="1" height="1" x="14" y="8" fill="hsl(30, 100%, 40%)"></rect><rect width="1" height="1" x="15" y="8" fill="hsl(30, 100%, 40%)"></rect><rect width="1" height="1" x="16" y="8" fill="hsl(30, 100%, 40%)"></rect><rect width="1" height="1" x="17" y="8" fill="hsl(30, 100%, 40%)"></rect><rect width="1" height="1" x="6" y="9" fill="hsl(105, 69%, 30%)"></rect><rect width="1" height="1" x="7" y="9" fill="hsl(105, 69%, 30%)"></rect><rect width="1" height="1" x="8" y="9" fill="hsl(105, 69%, 30%)"></rect><rect width="1" height="1" x="11" y="9" fill="hsl(30, 100%, 40%)"></rect><rect width="1" height="1" x="12" y="9" fill="hsl(30, 100%, 40%)"></rect><rect width="1" height="1" x="13" y="9" fill="hsl(30, 100%, 40%)"></rect><rect width="1" height="1" x="14" y="9" fill="hsl(30, 100%, 40%)"></rect><rect width="1" height="1" x="15" y="9" fill="hsl(30, 100%, 40%)"></rect><rect width="1" height="1" x="16" y="9" fill="hsl(30, 100%, 40%)"></rect><rect width="1" height="1" x="17" y="9" fill="hsl(30, 100%, 40%)"></rect><rect width="1" height="1" x="6" y="10" fill="hsl(105, 69%, 30%)"></rect><rect width="1" height="1" x="7" y="10" fill="hsl(105, 69%, 30%)"></rect><rect width="1" height="1" x="8" y="10" fill="hsl(105, 69%, 30%)"></rect><rect width="1" height="1" x="12" y="10" fill="hsl(30, 100%, 40%)"></rect><rect width="1" height="1" x="13" y="10" fill="hsl(30, 100%, 40%)"></rect><rect width="1" height="1" x="14" y="10" fill="hsl(30, 100%, 40%)"></rect><rect width="1" height="1" x="15" y="10" fill="hsl(30, 100%, 40%)"></rect><rect width="1" height="1" x="16" y="10" fill="hsl(30, 100%, 40%)"></rect><rect width="1" height="1" x="6" y="11" fill="hsl(105, 69%, 30%)"></rect><rect width="1" height="1" x="7" y="11" fill="hsl(105, 69%, 30%)"></rect><rect width="1" height="1" x="8" y="11" fill="hsl(105, 69%, 30%)"></rect><rect width="1" height="1" x="3" y="13" fill="hsla(353, 98%, 41%, 1.00)"></rect><rect width="1" height="1" x="4" y="13" fill="hsla(353, 98%, 41%, 1.00)"></rect><rect width="1" height="1" x="5" y="13" fill="hsla(353, 98%, 41%, 1.00)"></rect><rect width="1" height="1" x="6" y="13" fill="hsla(353, 98%, 41%, 1.00)"></rect><rect width="1" height="1" x="7" y="13" fill="hsl(0, 0%, 0%)"></rect><rect width="1" height="1" x="8" y="13" fill="hsl(105, 69%, 30%)"></rect><rect width="1" height="1" x="17" y="13" fill="hsl(0, 0%, 100%)"></rect><rect width="1" height="1" x="18" y="13" fill="hsla(28, 54%, 35%, 1.00)"></rect><rect width="1" height="1" x="4" y="14" fill="hsla(353, 98%, 41%, 1.00)"></rect><rect width="1" height="1" x="5" y="14" fill="hsl(0, 0%, 0%)"></rect><rect width="1" height="1" x="6" y="14" fill="hsla(353, 98%, 41%, 1.00)"></rect><rect width="1" height="1" x="7" y="14" fill="hsla(353, 98%, 41%, 1.00)"></rect><rect width="1" height="1" x="8" y="14" fill="hsl(105, 69%, 30%)"></rect><rect width="1" height="1" x="12" y="14" fill="hsla(28, 54%, 35%, 1.00)"></rect><rect width="1" height="1" x="13" y="14" fill="hsla(28, 54%, 35%, 1.00)"></rect><rect width="1" height="1" x="14" y="14" fill="hsla(28, 54%, 35%, 1.00)"></rect><rect width="1" height="1" x="17" y="14" fill="hsla(28, 54%, 35%, 1.00)"></rect><rect width="1" height="1" x="18" y="14" fill="hsla(28, 54%, 35%, 1.00)"></rect><rect width="1" height="1" x="1" y="15" fill="hsla(37, 91%, 55%, 1.00)"></rect><rect width="1" height="1" x="2" y="15" fill="hsl(28, 100%, 71%)"></rect><rect width="1" height="1" x="3" y="15" fill="hsl(28, 100%, 71%)"></rect><rect width="1" height="1" x="4" y="15" fill="hsl(28, 100%, 71%)"></rect><rect width="1" height="1" x="5" y="15" fill="hsl(28, 100%, 71%)"></rect><rect width="1" height="1" x="6" y="15" fill="hsla(353, 98%, 41%, 1.00)"></rect><rect width="1" height="1" x="7" y="15" fill="hsla(353, 98%, 41%, 1.00)"></rect><rect width="1" height="1" x="8" y="15" fill="hsl(105, 69%, 30%)"></rect><rect width="1" height="1" x="11" y="15" fill="hsla(28, 54%, 35%, 1.00)"></rect><rect width="1" height="1" x="12" y="15" fill="hsla(28, 54%, 35%, 1.00)"></rect><rect width="1" height="1" x="14" y="15" fill="hsla(28, 54%, 35%, 1.00)"></rect><rect width="1" height="1" x="15" y="15" fill="hsla(28, 54%, 35%, 1.00)"></rect><rect width="1" height="1" x="1" y="16" fill="hsla(37, 91%, 55%, 1.00)"></rect><rect width="1" height="1" x="2" y="16" fill="hsla(37, 91%, 55%, 1.00)"></rect><rect width="1" height="1" x="3" y="16" fill="hsl(28, 100%, 71%)"></rect><rect width="1" height="1" x="4" y="16" fill="hsl(28, 100%, 71%)"></rect><rect width="1" height="1" x="5" y="16" fill="hsl(28, 100%, 71%)"></rect><rect width="1" height="1" x="6" y="16" fill="hsl(0, 0%, 0%)"></rect><rect width="1" height="1" x="7" y="16" fill="hsl(105, 69%, 30%)"></rect><rect width="1" height="1" x="8" y="16" fill="hsl(105, 69%, 30%)"></rect><rect width="1" height="1" x="11" y="16" fill="hsla(28, 54%, 35%, 1.00)"></rect><rect width="1" height="1" x="13" y="16" fill="hsla(28, 54%, 35%, 1.00)"></rect><rect width="1" height="1" x="14" y="16" fill="hsla(28, 54%, 35%, 1.00)"></rect><rect width="1" height="1" x="15" y="16" fill="hsla(28, 54%, 35%, 1.00)"></rect><rect width="1" height="1" x="18" y="16" fill="hsl(0, 0%, 100%)"></rect><rect width="1" height="1" x="19" y="16" fill="hsla(28, 54%, 35%, 1.00)"></rect><rect width="1" height="1" x="2" y="17" fill="hsla(37, 91%, 55%, 1.00)"></rect><rect width="1" height="1" x="3" y="17" fill="hsla(37, 91%, 55%, 1.00)"></rect><rect width="1" height="1" x="4" y="17" fill="hsla(37, 91%, 55%, 1.00)"></rect><rect width="1" height="1" x="5" y="17" fill="hsl(28, 100%, 71%)"></rect><rect width="1" height="1" x="6" y="17" fill="hsl(105, 69%, 30%)"></rect><rect width="1" height="1" x="7" y="17" fill="hsl(105, 69%, 30%)"></rect><rect width="1" height="1" x="11" y="17" fill="hsla(28, 54%, 35%, 1.00)"></rect><rect width="1" height="1" x="12" y="17" fill="hsla(28, 54%, 35%, 1.00)"></rect><rect width="1" height="1" x="13" y="17" fill="hsla(28, 54%, 35%, 1.00)"></rect><rect width="1" height="1" x="14" y="17" fill="hsla(28, 54%, 35%, 1.00)"></rect><rect width="1" height="1" x="15" y="17" fill="hsla(28, 54%, 35%, 1.00)"></rect><rect width="1" height="1" x="16" y="17" fill="hsl(0, 0%, 100%)"></rect><rect width="1" height="1" x="17" y="17" fill="hsla(28, 54%, 35%, 1.00)"></rect><rect width="1" height="1" x="18" y="17" fill="hsla(28, 54%, 35%, 1.00)"></rect><rect width="1" height="1" x="19" y="17" fill="hsla(28, 54%, 35%, 1.00)"></rect><rect width="1" height="1" x="4" y="18" fill="hsla(37, 91%, 55%, 1.00)"></rect><rect width="1" height="1" x="5" y="18" fill="hsla(37, 91%, 55%, 1.00)"></rect><rect width="1" height="1" x="12" y="18" fill="hsla(28, 54%, 35%, 1.00)"></rect><rect width="1" height="1" x="13" y="18" fill="hsla(28, 54%, 35%, 1.00)"></rect><rect width="1" height="1" x="14" y="18" fill="hsla(28, 54%, 35%, 1.00)"></rect><rect width="1" height="1" x="16" y="18" fill="hsla(28, 54%, 35%, 1.00)"></rect><rect width="1" height="1" x="17" y="18" fill="hsla(28, 54%, 35%, 1.00)"></rect>
  </pattern></defs><rect width="100%" height="100%" fill="url(#pppixelate-pattern)"></rect></svg>